<svg width="57" height="46" viewBox="0 0 57 46" fill="none" xmlns="http://www.w3.org/2000/svg">
<path d="M19.4754 38.0083C17.4326 38.0083 15.7603 39.67 15.7603 41.7234C15.7603 43.7768 17.422 45.4385 19.4754 45.4385C21.5287 45.4385 23.1905 43.7768 23.1905 41.7234C23.1905 39.67 21.5287 38.0083 19.4754 38.0083Z" fill="white"/>
<path d="M44.9304 38.0083C42.8877 38.0083 41.2153 39.67 41.2153 41.7234C41.2153 43.7768 42.8771 45.4385 44.9304 45.4385C46.9838 45.4385 48.6456 43.7768 48.6456 41.7234C48.6456 39.67 46.9838 38.0083 44.9304 38.0083Z" fill="white"/>
<path d="M55.1337 7.60984C53.8954 6.08569 51.9584 5.21777 49.831 5.21777H24.7037C21.9094 5.21777 19.4009 6.86893 18.4484 9.3245C17.5275 11.6848 18.0673 14.278 19.8349 16.0985L33.2135 29.837H25.561C24.4285 29.837 23.5077 30.7578 23.5077 31.8904C23.5077 33.0229 24.4285 33.9437 25.561 33.9437H40.9189V18.5858C40.9189 17.4533 39.9981 16.5325 38.8656 16.5325C37.7331 16.5325 36.8122 17.4533 36.8122 18.5858V26.0372L36.5476 25.762L21.6025 10.4253H51.8632L44.5176 33.9437C47.7882 33.9437 50.6354 31.848 51.6197 28.7256L56.3298 13.6747C56.9966 11.5472 56.5626 9.33509 55.1549 7.59925L55.1337 7.60984Z" fill="white"/>
<path d="M12.5425 4.99582C11.7063 2.05337 8.98612 0 5.92724 0H0V5.21809H7.18678L13.7597 28.5354C14.6382 31.6578 17.4854 33.8594 20.7136 33.9546L12.5425 4.99582Z" fill="white"/>
</svg>
