<svg width="21" height="22" viewBox="0 0 21 22" fill="none" xmlns="http://www.w3.org/2000/svg">
<g clip-path="url(#clip0_3_268)">
<g clip-path="url(#clip1_3_268)">
<path d="M13.6809 13.031L18.1412 8.57069V15.3153C18.1412 16.8892 17.1663 17.8641 15.5925 17.8641H5.39747C3.82362 17.8641 2.84872 16.8892 2.84872 15.3153V13.6682L4.76029 11.7566L7.30904 14.3054L11.1322 10.4823L13.6809 13.031ZM15.5925 3.84595H5.39747C3.82362 3.84595 2.84872 4.82084 2.84872 6.3947V11.865L4.76029 9.95339L7.30904 12.5021L11.1322 8.67901L13.6809 11.2278L18.1412 6.76745V6.3947C18.1412 4.82084 17.1663 3.84595 15.5925 3.84595Z" fill="#55534E"/>
</g>
</g>
<defs>
<clipPath id="clip0_3_268">
<rect x="0.299988" y="0.659912" width="20.39" height="20.39" rx="3" fill="white"/>
</clipPath>
<clipPath id="clip1_3_268">
<rect width="20.39" height="20.39" fill="white" transform="translate(0.299988 0.659912)"/>
</clipPath>
</defs>
</svg>
